<svg width="18" height="18" viewBox="0 0 18 18" fill="none" xmlns="http://www.w3.org/2000/svg">
    <path
            fill-rule="evenodd"
            clip-rule="evenodd"
            d="M9.15872 2.57854L10.8964 6.06986C10.9818 6.23943 11.1527 6.367 11.3523 6.39475L15.2412 6.95975C15.7252 7.03028 15.9248 7.62378 15.5687 7.9772L12.7483 10.6919C12.6061 10.833 12.5487 11.0311 12.5774 11.2149L13.2466 15.0597C13.332 15.5399 12.8193 15.9075 12.3777 15.6817L8.9025 13.8726C8.73161 13.7879 8.51761 13.7879 8.34673 13.8726L4.87148 15.6817C4.4299 15.9075 3.91721 15.5406 4.00266 15.0597L4.67184 11.2149C4.70058 11.0168 4.64311 10.8195 4.50095 10.6919L1.68134 7.97797C1.3252 7.63882 1.52482 7.03105 2.00876 6.96052L5.89767 6.39552C6.09729 6.36701 6.25381 6.2402 6.35364 6.07063L8.09128 2.57931C8.30453 2.14036 8.94549 2.14034 9.15872 2.57854Z"
            fill="#CACBCD"
    />
</svg>